# xmcd
#
# Track frame offsets: 
#        150
#        11130
#        30047
#        55647
#        81382
#        110951
#        134199
#        154012
#        171309
#        192239
#        217439
#        241816
#        268982
#        280354
#        310859
#        341872
#
# Disc length: 4688 seconds
#
# Revision: 0
# Processed by: cddbd v1.5.2PL0 Copyright (c) Steve Scherf et al.
# Submitted via: ExactAudioCopy v0.95b4
#
DISCID=fa124e10
DTITLE=Various Artist - The Suoni Per Il Popolo Festival CD
DYEAR=2006
DGENRE=Blues
TTITLE0=Wharton Tiers Ensemble - HiLo
TTITLE1=Excepter - Know Blues
TTITLE2=Dragons 1976 - Sock It
TTITLE3=Ava Gardner - Between Our Pages
TTITLE4=Feu Thérèse - L'homme avec coeur avec elle
TTITLE5=Tetuzi Akiyama - Untitled-Improvization
TTITLE6=Creeping Nobodies - Hollow Stems, A Hunter's Will
TTITLE7=Cinc (Ken Vandermark, Paul Lytton, and Phillip Wachsmann) - Ci
TTITLE7=nc
TTITLE8=Diane Cluck - Syvania
TTITLE9=Triple Burner - Round About
TTITLE10=Diebold - Ba-Boum-Ka-Ka-Tchik
TTITLE11=Thames - Stand Up For Power
TTITLE12=Aids Wolf - Bethlehem Embargo Crystal
TTITLE13=Awsome - Electronic Voice Phenomenon
TTITLE14=Trio X - Goin' Home
TTITLE15=Jeruselem In My Heart - Ayaratni
EXTD=
EXTT0=
EXTT1=
EXTT2=
EXTT3=
EXTT4=
EXTT5=
EXTT6=
EXTT7=
EXTT8=
EXTT9=
EXTT10=
EXTT11=
EXTT12=
EXTT13=
EXTT14=
EXTT15=
PLAYORDER=
